<?xml version="1.0" standalone="no"?>
<!DOCTYPE svg PUBLIC "-//W3C//DTD SVG 20010904//EN"
 "http://www.w3.org/TR/2001/REC-SVG-20010904/DTD/svg10.dtd">
<svg version="1.0" xmlns="http://www.w3.org/2000/svg"
 width="128.000000pt" height="128.000000pt" viewBox="0 0 128.000000 128.000000"
 preserveAspectRatio="xMidYMid meet">
<metadata>
Created by potrace 1.14, written by Peter Selinger 2001-2017
</metadata>
<g transform="translate(0.000000,128.000000) scale(0.100000,-0.100000)"
fill="#000000" stroke="none">
<path d="M569 1258 c-20 -13 -51 -33 -70 -45 -34 -23 -43 -25 -134 -28 -85 -2
-134 -39 -156 -115 -17 -61 -47 -103 -102 -145 -77 -59 -97 -125 -63 -207 20
-48 20 -95 0 -155 -32 -93 -15 -149 65 -206 58 -42 73 -63 96 -132 31 -95 60
-116 177 -126 85 -7 95 -10 148 -47 88 -63 130 -62 227 5 45 31 61 36 125 40
125 7 165 35 194 132 17 59 42 92 100 132 74 50 92 110 60 202 -21 61 -20 98
3 171 25 82 14 125 -47 174 -73 59 -99 91 -112 137 -28 101 -74 137 -180 140
-63 1 -160 34 -160 54 0 12 -51 32 -95 37 -30 3 -49 -1 -76 -18z"/>
</g>
</svg>
